<svg xmlns="http://www.w3.org/2000/svg" viewBox="0 0 2048 2048">
  <path fill="#FEFEFE" d="M0 0h2048v2048H0z"/>
  <path fill="#020202" d="M1352 153h7l5 3 4 10v13l-3 15-4 5-8 7-8 8-8 7-57 57-7 8-16 16-7 8-12 14-9 9-9 11-10 11-8 10-10 12-11 14-10 13-12 17-10 15-11 18-9 17-7 18-7 30-5 33-2 22-1 18v63l1 34v50l-2 5-2 40-3 26-4 16-7 16-9 16-10 13-9 10-8 9-8 7-10 9-14 10-17 12-10 7h-2l1 68 1 41 1 17h16l19 3 13 5 12 6 16 12 10 10 6 10 3 9-1 8-12 31-22 55-19 48-9 22h-9l-16-4 3 62 3 43v7l8-1 3 7 22 81 9 33v5l-14 17-18 22-11 13-27 33-8 3-5 1h-23l-10-3-10-6-8-8-5-9-2-10 1-11 4-12 9-17 11-17 8-13 5-12 1-5v-28l-5-27-9-62-24-160-10-66v-8l-9-3-33-13-49-21-24-11-29-15-23-14-14-10-9-7-10-9-9-10-7-11-4-10-1-4v-14l4-13 7-14 8-11 12-14 12-13 2-5 7-50 14-89 11-66 10-53 9-44 11-48 8-30 7-21 8-16 7-6 24-10 36-11 16-5 4-9 2-11-4 4-5 7-9 5h-3l1-9v-25l-4-23-4-9-11-19-6-18-2-12v-20l3-18 4-15 5-12 9-14 7-8 12-9 14-7 18-4 12-2h15l11 2 12 5 11 8 8 9 10 17 6 15 6 24 3 23v20l-9 44-2 17 2 7 7-1 17-7 18-10 17-11 14-11 12-12 9-11 11-14 15-16 7-8 3-3h2l2-4 10-9 8-8 8-7 12-11 11-9 10-9 11-9 14-11 17-14 19-14 14-11 17-12 10-7 27-18 15-8z"/>
  <path fill="#FEFEFE" d="M1082 761h5v16l-2 23-4 20-6 15-11 18-12 14-11 12-8 7-16 13-18 13-24 15-18 10-36 18-36 16-26 10-36 12-11 4 34 16 26 12 102 48 5 4-3 11-14 33-4 8-36-12-42-15-42-17-26-12-29-14-24-13-22-14-12-9-15-14-6-7-6-12-1-10 3-10 8-15 10-13 7-7 7-8 14-14 8-7 13-11 17-13 16-12 20-14 17-11 19-12 16-10 9-1 9-6 9-10 15-9 23-13 16-5 29-6 37-5zM940 276h6l5 6 7 11 9 10 16 16 7 8 2 3v21h2l1-16 2 2 1 4v22l-4 18-7 16-8 11-10 9 1 12 7 3v2l-16 5-31 8-2-1 1-1-1-15-1-8-12-7-10-8-10-13-4-8-9-31-1-7 2-3h2l5 15v-4l-1-6 2-1 6 8 6 4-1-1-8-14-3-10 1-10 10-22 6-19 6-7h8l9 6 7-7zM919 1135l7 1 24 8 13 13 7 8 10 11 2 4 1 57 2 26 4 82 3 46-17 3-12 2h-5l-4-24-34-226zM994 1408h12l13 49 13 47-1 7-8 9-9 11-11 13-28 34-4 5-9 2h-12l-14-5-6-7-2-5v-9l4-11 7-13 11-17 8-13 5-11 3-11 1-7v-19l-3-21-3-15v-8l10-2zM999 1079h15l18 4 16 8 12 9 6 5 7 10-1 8-15 38-12 30-21 53-7 17-5-1-9-7-2-5-2-43v-33l-15-16-9-10-3-4 3-9 18-43 5-10z"/>
  <path fill="#FEFEFE" d="M972 948h3l1 17 2 90-6-1-27-13-28-13-16-8-4-28v-8l13-6 27-12 32-16zM865 684h1l-1 25v66l2 19 2 11-21 13-17 11h-2l4-18 16-64 14-57z"/>
  <path fill="#020202" d="M512 1868h27l7 4 3 5 1 10-3 8-6 4-3 1-19 1-1 18h-6zM427 1795h5l1 18h2l4-3h11l7 6 3 8v8l-3 9-5 5-3 2h-9l-7-4-2 4h-4l-1-3v-42zM396 1796h5l1 1v49l-1 2h-5v-6l1-2h-2l-2 4-5 4h-9l-7-6-3-6-1-11 4-10 6-4 9-1 7 4 1 1zM210 1884h11l7 4 4 7 1 10-3 8-6 5-3 1h-12l-6-4-4-8v-11l3-6 5-5zM593 1884h12l6 4 4 6 1 4v9l-3 6-6 5-3 1h-11l-7-4-4-8v-10l4-8 5-4zM383 1884h11l5 3 5 6 1 3v12l-4 6-5 4-2 1h-12l-6-4-4-6-1-10 3-9 6-5zM319 1868h6l5 5 10 15 13 19 2 1v-40l6 1v50h-6l-5-5-13-19-11-16-1 40h-6zM242 1884l6 1v4l6-5h10l6 5 5-4 2-1h10l5 5 2 6v25h-6l-1-27-2-3h-8l-5 5-1 25h-6l-1-25-3-5h-7l-5 6-1 24h-6zM345 1809l9 1 7 6 3 10-1 4h-26l2 7 5 4h6l6-4 3-3h4l-1 5-4 5-7 3h-8l-6-3-5-6-2-7 1-10 3-6 6-5zM242 1809l9 1 6 4 3 5 1 10-5 1h-22l4 9 4 2 8-1 7-6h4l-2 6-5 5-5 2h-8l-6-3-5-6-2-5v-10l3-7 5-5zM648 1883h13l7 6 3 8v5l-6 1h-21l2 7 3 3 8 1 6-4 3-3h4l-1 6-7 6-3 1h-9l-6-3-5-6-1-3v-13l4-8zM617 1809h8l6 3 4 5 1 6v21l-5 1-2-4-7 4h-10l-6-5-1-2v-8l5-4 8-2 12-1-3-7-2-1h-7l-8 6h-4l1-5 7-6zM279 1809h7l6 3 3 4 1 3v26l-5-1-2-3-6 4h-10l-6-4-1-2v-10l8-4 17-2-3-7-2-1h-8l-7 6h-4l1-6 7-5zM531 1794h9l9 3 7 8 2 4v4h-6l-5-9-5-3-8-1-7 3-5 5-2 6v13l4 8 6 4h12l6-4 5-7h5l-1 6-4 6-10 5-10 1-10-3-6-5-4-8-1-4v-11l4-11 4-5 7-4zM168 1794h8l10 3 5 4 4 8v4h-6l-4-8-3-3-7-2-8 1-4 3h-2l-4 10v13l4 7v2l6 3h12l6-4 5-7 5 1-1 6-4 5-10 5-10 1-10-3-5-5-4-6-2-7v-9l3-10 5-7 7-4zM567 1796h5l1 1 1 18 5-4 6-1 7 2 4 5 1 3v27h-6l-1-27-1-3h-10l-5 5-1 24-1 1h-5zM415 1882l5 1 1 24 2 5 2 1 9-1 3-4 1-25 5-1 2 2v35h-5l-2-3-4 2-1 1h-11l-6-5-2-6v-25z"/>
  <path fill="#FEFEFE" d="M518 1873h18l6 3 2 4v8l-3 5-5 2h-18z"/>
  <path fill="#020202" d="M463 1809h6l9 21 2 5 2-3 8-20 3-3h4l-1 6-16 38-5 5-8 2-2-2v-4l7-1 4-6-1-7-12-29zM471 1883l8 1 6 7 1 3v27h-6l-1-26-2-4-2-1h-6l-5 4-1 2-2 25h-5v-37h5l2 4 5-4z"/>
  <path fill="#FEFEFE" d="M595 1889h8l6 5 1 3v9l-3 6-6 3-7-1-5-5-1-3v-9l4-6zM212 1889h8l5 4 2 5-1 10-5 6-8 1-6-4-2-4v-11l5-6zM440 1815h7l5 4 2 8-1 8-4 5-4 2-6-1-5-4-2-5v-7l2-5zM385 1889h7l5 3 2 4v11l-3 5-5 3-8-1-5-6-1-8 3-8z"/>
  <path fill="#020202" d="M688 1884h9l8 5 3 4-1 4-5-2-6-5h-7l-5 4-1 2v11l3 5 5 2 6-1 7-7h3l-1 7-6 5-3 1h-10l-8-5-3-6v-13l5-8z"/>
  <path fill="#FEFEFE" d="m382 1815 8 1 5 5 1 2v9l-4 6-3 2h-8l-5-5-1-2v-10l3-5z"/>
  <path fill="#020202" d="m162 1869 6 1v4l-9 1-1 9h10v4l-8 1-1 29-1 1h-6v-28l-1-2-4-1 1-4h4l1-10 4-4zM310 1801l4 1 1 3-1 6h9l1 5h-9v17l1 6 8 1 1 2-1 3h-9l-5-3-2-6v-20h-6v-4l6-1v-9zM720 1874l4 2 1 8 9 1-1 4h-9l1 24h7l2 1v4h-11l-4-3-1-4-1-21-6-2 1-3 5-1 1-9zM624 1884h7v36l-1 7-4 4-8 1-2-2v-3l7-2zM558 1883h5l2 5 5-4 5-1 3 2-1 4-7 2-4 4-1 3-1 21h-6zM204 1810h5l2 5 5-4 6-1 2 1-1 4-8 3-4 6-1 22h-6zM176 1883l5 1 1 4 5-4 6-1 1 5-8 4-4 4-1 22-1 1h-5v-35z"/>
  <path fill="#FEFEFE" d="M878 992h2l2 12v7l-6-2-17-8v-2zM621 1828h9l-1 7-4 4-5 2-7-1-2-3 1-6zM345 1814l7 1 5 5 1 5h-22l1-5 5-5zM242 1814l8 1 4 4 1 6h-21l1-6 5-4zM283 1828h7v6l-4 5-4 2h-6l-4-3v-6l5-3zM652 1887l7 1 5 5 1 5h-22l2-6 4-4z"/>
  <path fill="#020202" d="M623 1870h8v6h-7z"/>
</svg>