<svg xmlns="http://www.w3.org/2000/svg" viewBox="0 0 1606 2048">
  <path fill="#FDFDFD" d="M0 0h1606v2048H0z"/>
  <path fill="#0A0A0A" d="M528 201h602l21 2 15 4 16 7 13 9 12 11 7 7 10 14 8 17 5 21 1 8 1 37v313l21 2 18 6 14 7 13 10 8 7 11 14 8 14 5 12 4 17 1 9v14l-2 14-5 16-8 17-7 11 4 2 10 9 9 10 11 18 7 19 3 16v20l-4 18-6 16-7 12-8 10-11 12-6 5 1 5 9 14 7 19 2 10 1 10v17l-3 16-5 14-7 14-9 12-11 12-6 5 2 5 9 16 6 16 3 15v26l-4 16-6 16-10 16-12 13-7 6-4 16-6 18-8 15-10 13-12 12-15 10-5 3-4 27-6 24-8 24-9 20-11 19-9 13-11 14-9 11-12 15-11 17-9 17-8 21-5 18-3 17-1 11-1 144-4 11-4 6-7 6-11 4h-10l-10-3-6-4-6-7-4-9-1-39v-89l1-28 4-29 6-23 8-23 13-27 10-16 8-11 10-13 9-11 12-15 12-19 9-19 7-20 6-23-641-1-19-5-12-5-13-8-13-10-7-7-10-14-8-15-6-18-2-12-1-14-1-476-11-12-9-10-16-17-9-8-12-7-14-5-10-2h-21l-17 3-12 5-16 10-4 4 11 30 11 29 15 40 7 21 19 61 9 33 8 42 3 28 1 15v44l-3 39-10 99-5 52-1 15v29l2 25 4 23 6 22 9 21 10 17 9 12 9 10 8 8 13 10 19 12 15 10 14 11 11 10 8 7 9 10 13 17 11 17 10 18 9 21 7 21 5 24 3 27 1 22v68l-2 11-5 10-8 7-11 4h-11l-11-4-6-4-6-9-2-5-1-6-1-84-2-23-4-20-7-21-9-19-10-16-11-14-8-9-8-7-13-11-39-26-12-9-17-16-11-12-12-16-12-21-10-21-10-30-5-25-3-21-1-11v-54l5-54 11-111 2-24v-54l-3-30-5-28-6-25-15-49-13-41-13-35-15-40-16-43-4-11-1-11 3-10 7-9 11-8 13-8 15-9 18-10 21-8 16-4 19-2 19 1 20 3 16 5 12 5 16 9 16 11 1-404 3-18 6-16 8-15 9-11 10-11 13-10 11-6 17-7 14-3z"/>
  <path fill="#FDFDFD" d="M559 263h65l21 1 7 24 19 64 6 19 6 10 6 5 8 4 4 1h259l9-3 8-4 7-8 5-13 10-33 19-65 2-2h101l18 1 11 4 10 6 8 9 5 10 2 6 1 9v343l-118 1-18 2-10 3-16 8-11 7-15 12 2-10 4-19 1-7v-27l-3-21-6-21-8-18-9-16-10-14-15-16-14-12-18-12-19-9-26-8-22-3h-26l-25 4-19 5-23 10-15 10-10 8-10 9-4 2-2 4-8 8-11 16-11 21-7 19-4 16-2 16v26l3 22 4 15 7 19 11 21 12 16 9 10 7 7 11 9 14 10 16 8 15 6 21 6 20 3h32l17-3 30-10 16-8 14-9 10-8 10-9 9-10 4-6h1l-1 15v14l2 14 6 20 5 9 3 4-1 4-8 6-44-2H734l-24 1-23 3-23 6-21 8-15 8-15 10-13 10-13 12-12 14-12 18-12 23-8 21-5 22-2 23v164l-1 1h-47l-1-1V333l1-34 4-10 6-10 9-8 10-5 7-2z"/>
  <path fill="#FDFDFD" d="M726 880h199l1 3-2 11v22l4 20 7 17 8 12 8 10 8 8 6 4-1 5-9 16-6 16-3 13-1 9v14l3 18 5 15 9 17 10 13 8 8 8 6-1 4-8 13-4 8H742l-1-1v-114l-1-37-4-10-7-8-9-5-4-1h-12l-8 3-6 4-7 8-3 9-1 152h-81V989l3-17 7-19 7-13 8-11 12-14 10-9 16-10 16-8 19-5 13-2zM488 1224h455l28 1 3 8 6 15 10 16 12 13 8 7 18 11 19 7 12 2h144l-2 4-7 5-10 3H529l-12-3-8-4-10-9-7-10-4-11-1-15v-39zM820 532h20l14 2 19 6 16 9 9 7 9 8 10 13 9 16 6 20 2 14v17l-3 16-6 17-8 14-9 11-10 10-16 11-15 7-15 4-12 2h-16l-18-3-12-4-19-10-12-9-10-10-9-13-8-16-5-17-1-7v-28l3-14 5-13 6-12 9-12 9-10 8-7 14-8 15-6zM1019 862h248l10 3 11 8 6 7 6 11 2 9v9l-4 13-6 10-10 9-9 4-11 2h-238l-14-3-9-6-5-5-5-6-5-12-1-5v-11l3-12 7-11 10-9 10-4zM1043 1009h198l11 2 11 7 9 9 6 12 2 10v8l-4 14-7 10-9 8-8 4-9 2h-199l-10-2-10-5-9-9-7-14-1-4v-19l4-10 6-8 8-8 12-6zM1081 713h150l17 1 9 4 11 8 6 8 5 12 1 6v9l-4 13-7 11-8 7-8 4-9 2h-187l-12-3-8-6-5-5-4-5-5-11-2-9 1-13 4-10 7-9 9-8 9-4 4-1zM1072 1157h136l17 1 11 4 9 7 8 9 5 12 1 5v11l-3 10-5 9-8 9-10 6-16 3h-147l-12-2-8-4-10-9-6-9-4-11v-17l5-12 7-9 10-8 11-4zM729 263h224l1 3-9 30-9 31-1 2H729l-3-8-14-47-2-10z"/>
</svg>